<svg width="100" height="93" viewBox="0 0 100 93" fill="none" xmlns="http://www.w3.org/2000/svg" style="position: absolute; bottom: 0px;"><path d="M27.5 88.9711C26.1193 91.3626 23.0435 92.2016 20.8018 90.5891C13.2063 85.1253 7.26698 77.6168 3.70647 68.892C-0.486193 58.6182 -1.14216 47.2416 1.84187 36.554C4.82591 25.8664 11.2804 16.4751 20.1888 9.85913C29.0971 3.24319 39.9532 -0.221419 51.0471 0.0109658C62.1411 0.24335 72.8425 4.15952 81.466 11.1427C90.0895 18.1259 96.1451 27.7793 98.6789 38.5825C101.213 49.3856 100.081 60.7248 95.4618 70.814C91.5391 79.3821 85.2905 86.6352 77.4729 91.7761C75.1657 93.2934 72.1277 92.3263 70.8483 89.8792V89.8792C69.569 87.432 70.5383 84.4356 72.8069 82.8611C78.6742 78.7889 83.3711 73.2002 86.3694 66.6512C90.0648 58.5798 90.9702 49.5085 88.9432 40.866C86.9161 32.2234 82.0716 24.5007 75.1728 18.9142C68.274 13.3276 59.7128 10.1947 50.8377 10.0088C41.9625 9.82287 33.2777 12.5946 26.151 17.8873C19.0243 23.18 13.8607 30.6931 11.4735 39.2432C9.08627 47.7933 9.61105 56.8946 12.9652 65.1136C15.6867 71.7824 20.1454 77.5629 25.8371 81.8772C28.0377 83.5453 28.8807 86.5797 27.5 88.9711V88.9711Z" fill="#EFF0F6"></path></svg>