<svg width="76" height="92" viewBox="0 0 76 92" fill="none" xmlns="http://www.w3.org/2000/svg" color="#ff9b00" style="position: absolute; bottom: 0px;"><path d="M27.5 88.9711C26.1193 91.3626 23.0436 92.2017 20.8019 90.5891C16.7356 87.6639 13.124 84.1386 10.0945 80.1256C6.0587 74.7796 3.1382 68.6772 1.5064 62.1807C-0.125405 55.6843 -0.435244 48.9261 0.595275 42.3076C1.62579 35.689 3.97566 29.345 7.50537 23.6522C11.0351 17.9594 15.6726 13.0338 21.1427 9.16792C26.6128 5.30204 32.8039 2.57466 39.3485 1.14772C45.893 -0.279218 52.6575 -0.376627 59.2405 0.861277C64.1819 1.79052 68.9455 3.45796 73.3736 5.79963C75.8148 7.09052 76.4308 10.2185 74.9026 12.5185V12.5185C73.3745 14.8186 70.2818 15.4128 67.8092 14.1833C64.5212 12.5485 61.0166 11.3706 57.3924 10.689C52.126 9.6987 46.7144 9.77663 41.4788 10.9182C36.2432 12.0597 31.2903 14.2416 26.9142 17.3343C22.5381 20.427 18.8281 24.3675 16.0043 28.9218C13.1805 33.476 11.3006 38.5512 10.4762 43.8461C9.6518 49.1409 9.89968 54.5474 11.2051 59.7446C12.5106 64.9418 14.847 69.8237 18.0756 74.1005C20.2975 77.0437 22.9109 79.6591 25.8372 81.8772C28.0378 83.5453 28.8807 86.5797 27.5 88.9711V88.9711Z" fill="currentColor"></path></svg>